<?xml version="1.0" standalone="no"?>
<!DOCTYPE svg PUBLIC "-//W3C//DTD SVG 1.1//EN" "http://www.w3.org/Graphics/SVG/1.1/DTD/svg11.dtd" >
<svg xmlns="http://www.w3.org/2000/svg">
<metadata></metadata>
<defs>
<font id="sintonybold" horiz-adv-x="1323" >
<font-face units-per-em="2048" ascent="1638" descent="-410" />
<missing-glyph horiz-adv-x="563" />
<glyph unicode="&#xfb01;" horiz-adv-x="1411" d="M90 993v178h127v80q0 336 354 336q133 0 234 -37l-68 -207q-69 29 -137 29q-109 0 -108 -121v-80h221v-178h-221v-993h-275v993h-127zM927.5 1469.5q0.5 158.5 153.5 158.5q158 0 158 -158.5t-158 -158.5q-154 0 -153.5 158.5zM944 0v1171h275v-1171h-275z" />
<glyph unicode="&#xfb02;" horiz-adv-x="1411" d="M90 993v178h127v80q0 336 354 336q133 0 234 -37l-68 -207q-69 29 -137 29q-109 0 -108 -121v-80h221v-178h-221v-993h-275v993h-127zM944 0v1540l275 37v-1577h-275z" />
<glyph horiz-adv-x="0" />
<glyph unicode="&#xd;" horiz-adv-x="681" />
<glyph unicode=" "  horiz-adv-x="563" />
<glyph unicode="&#x09;" horiz-adv-x="563" />
<glyph unicode="&#xa0;" horiz-adv-x="563" />
<glyph unicode="!" horiz-adv-x="610" d="M154 1122v373h303v-373l-70 -694h-164zM160 137q0 41 4 64.5t17.5 50.5t44 40t79.5 13t82 -13t47 -40q20 -43 20.5 -99.5t-7 -86t-42 -56t-99 -26.5t-98.5 26.5t-41 56t-7 70.5z" />
<glyph unicode="&#x22;" horiz-adv-x="851" d="M98 1360v135h262v-135l-53 -404h-155zM492 1360v135h262v-135l-54 -404h-155z" />
<glyph unicode="#" horiz-adv-x="1667" d="M90 319l39 216h211l76 423h-211l39 216h211l88 475h276l-88 -475h359l88 475h276l-88 -475h211l-39 -216h-211l-76 -423h213l-39 -216h-213l-86 -475h-276l86 475h-358l-86 -475h-277l86 475h-211zM616 535h359l76 423h-359z" />
<glyph unicode="$" horiz-adv-x="1290" d="M135 416l242 18q0 -119 60.5 -179t205.5 -60t204.5 54t59.5 161q0 176 -200 206l-179 29q-200 31 -292.5 135.5t-92.5 295t97.5 300t316.5 127.5v223h186v-223q215 -18 308.5 -122.5t93.5 -303.5l-242 -18q0 119 -55 175t-188.5 56t-187.5 -53t-54 -164q0 -176 174 -199 l180 -24q408 -53 408 -440t-437 -420v-221h-186v221q-229 16 -325.5 120.5t-96.5 305.5z" />
<glyph unicode="%" horiz-adv-x="1998" d="M70 1081q0 207 72.5 321t265 114t266.5 -114t74 -321t-74 -318.5t-266.5 -111.5t-265 111.5t-72.5 318.5zM305 1083.5q0 -143.5 20.5 -201t83 -57.5t83 57.5t20.5 201t-20.5 199.5t-83 56t-83 -56t-20.5 -199.5zM655 -135l439 1640h174l-441 -1640h-172zM1198 414 q0 207 72.5 320.5t265.5 113.5t266.5 -113.5t73.5 -320.5t-73.5 -318.5t-266.5 -111.5t-265.5 111.5t-72.5 318.5zM1434 415.5q0 -143.5 20.5 -200.5t82.5 -57t82.5 57t20.5 200.5t-20.5 200t-82.5 56.5t-82.5 -56.5t-20.5 -200z" />
<glyph unicode="&#x26;" horiz-adv-x="1320" d="M80 399q0 143 79 240.5t210 130.5q-109 39 -178.5 131t-69.5 213q0 186 109.5 298t333.5 112t327.5 -74t132.5 -236l-233 -73q-27 164 -189 164q-111 0 -159 -56.5t-48 -163t47 -172t129 -65.5h23v-191q-121 0 -180.5 -56t-59.5 -180t60.5 -178.5t198 -54.5t195.5 59.5 t58 184.5v225h-131v191h602v-191h-229v-194q0 -135 -19.5 -220t-73.5 -150.5t-156.5 -94.5t-266.5 -29q-266 0 -389 116t-123 314z" />
<glyph unicode="'" horiz-adv-x="458" d="M98 1360v135h262v-135l-53 -404h-155z" />
<glyph unicode="(" horiz-adv-x="651" d="M76 645q0 182 9 286.5t44 219.5t93.5 187.5t162.5 119.5t248 47v-192q-121 0 -178.5 -93.5t-70.5 -201t-16 -175t-3 -157.5t3 -157.5t12 -145.5t27.5 -132t47.5 -99q57 -95 178 -95v-192q-248 0 -367 123q-121 123 -155 303q-35 172 -35 354z" />
<glyph unicode=")" horiz-adv-x="651" d="M18 57q121 0 178.5 93.5t71 201t16.5 175t3 157.5t-3 157.5t-12.5 145.5t-28 132.5t-46.5 101.5q-58 92 -179 92v192q248 0 367 -121q121 -125 156 -303q35 -174 34.5 -356t-9.5 -286.5t-44 -219.5t-93 -187.5t-162.5 -119.5t-248.5 -47v192z" />
<glyph unicode="*" horiz-adv-x="1140" d="M49 1135l74 219l186 -62l185 -137l-27 -78l-231 -6zM172 750l115 165l194 121l66 -51l-58 -221l-118 -164zM438 1401v194h262v-194l-90 -219h-82zM592 985l67 49l195 -119l115 -165l-199 -150l-119 164zM649 1155l180 137l189 62l74 -219l-187 -64l-231 4z" />
<glyph unicode="+" horiz-adv-x="1187" d="M176 557v188h324v324h188v-324h324v-188h-324v-324h-188v324h-324z" />
<glyph unicode="," horiz-adv-x="462" d="M39 -199q94 90 94 162q0 27 -20.5 87.5t-20.5 97t4 59t17 47.5q27 51 102.5 51t109 -25.5t40 -54t6.5 -73.5q0 -227 -260 -435z" />
<glyph unicode="-" horiz-adv-x="974" d="M127 557v188h721v-188h-721z" />
<glyph unicode="." horiz-adv-x="479" d="M92 137q0 41 4 64.5t19 50.5q25 53 123 53q102 0 127 -53q23 -43 22.5 -93t-4.5 -73t-17.5 -49.5t-45 -39.5t-89 -13t-91.5 26.5t-41 56t-7 70.5z" />
<glyph unicode="/" horiz-adv-x="729" d="M-16 -217l485 1804h276l-485 -1804h-276z" />
<glyph unicode="0" d="M104 747.5q0 174.5 25 305.5t84 242.5t172 171t276.5 59.5t277.5 -59.5t173 -171t84 -242.5t25 -305.5t-25 -305.5t-84 -242.5t-173 -170t-277.5 -58.5t-276.5 58.5t-172 170t-84 242.5t-25 305.5zM381 698.5q0 -237.5 59.5 -375t221 -137.5t222 137.5t60.5 424 t-60.5 424t-221.5 137.5q-111 0 -174.5 -70t-85 -186.5t-21.5 -354z" />
<glyph unicode="1" d="M264 1221v161q240 27 361 113h219v-1278h297v-217h-873v217h297v1004h-301z" />
<glyph unicode="2" d="M139 0v197l545 591q100 109 144 175.5t44 149.5t-57 138.5t-170 55.5q-236 0 -248 -230l-239 35q35 412 506 412q236 0 359.5 -114t123.5 -306q0 -117 -56.5 -220.5t-164.5 -221.5l-410 -445h653v-217h-1030z" />
<glyph unicode="3" d="M121 365l239 30q25 -207 269 -207q272 0 272 218q0 233 -293 233h-151v201h153q145 0 208 61.5t63 173t-64.5 172t-187.5 60.5q-229 0 -242 -232l-240 33q31 416 500 416q246 0 377 -122t131 -325q0 -227 -221 -332q240 -96 240 -358q0 -184 -144.5 -300t-388.5 -116 t-372 96.5t-148 297.5z" />
<glyph unicode="4" d="M41 315v201l584 979h407v-963h158v-217h-158v-315h-268v315h-723zM352 532h412v707z" />
<glyph unicode="5" d="M176 426l240 20q12 -260 254 -260q131 0 195.5 70t64.5 191.5t-102.5 193.5t-372.5 72h-254l51 782h860v-217h-629l-22 -342h90q336 0 495.5 -131t159.5 -367q0 -199 -138 -333t-398 -134q-467 0 -494 455z" />
<glyph unicode="6" d="M129 684q0 416 123 628t432 212q473 0 500 -432l-240 -25q-12 240 -260 240q-154 0 -215 -114t-70 -343q174 39 324 39q494 0 494 -438q0 -231 -131.5 -355.5t-413.5 -124.5q-543 0 -543 713zM399 649q8 -256 74 -359.5t211 -103.5q262 0 262 265q1 233 -284 233 q-135 0 -263 -35z" />
<glyph unicode="7" d="M139 1278v217h1028v-188l-565 -1307h-297l561 1278h-727z" />
<glyph unicode="8" d="M119 389q0 244 219 354q-199 102 -199 349q0 188 134.5 310t389.5 122t389 -122t134 -310q0 -225 -197 -334q217 -106 217 -369q0 -182 -147.5 -300t-396 -118t-396 118t-147.5 300zM397 395q0 -96 67.5 -155.5t197 -59.5t199 60.5t69.5 162t-45 164t-156 80.5l-139 21 q-193 -42 -193 -273zM416 1079.5q0 -102.5 44 -158t156 -73.5l115 -19q88 23 133 88.5t45 165t-60.5 166t-186 66.5t-186 -66.5t-60.5 -169z" />
<glyph unicode="9" d="M104 1042.5q0 204.5 148.5 343t423 138.5t396.5 -187.5t122 -537.5q0 -207 -24.5 -351.5t-86.5 -254.5q-121 -221 -450 -222q-481 0 -504 426l238 27q12 -238 264 -238q152 0 213 103.5t71 345.5q-150 -39 -315 -39q-262 0 -379 121t-117 325.5zM383 1054.5 q0 -108.5 66.5 -179t208 -70.5t257.5 31q-6 246 -62 358.5t-192.5 112.5t-207 -72t-70.5 -180.5z" />
<glyph unicode=":" horiz-adv-x="479" d="M92 137q0 41 4 64.5t19 50.5q25 53 123 53q102 0 127 -53q23 -43 22.5 -93t-4.5 -73t-17.5 -49.5t-45 -39.5t-89 -13t-91.5 26.5t-41 56t-7 70.5zM92 950q0 41 4 64.5t19 50.5q25 53 123 53q102 0 127 -53q23 -43 22.5 -93t-4.5 -72.5t-17.5 -49.5t-45 -40t-89 -13 t-91.5 26.5t-41 56t-7 70.5z" />
<glyph unicode=";" horiz-adv-x="462" d="M39 -199q94 90 94 162q0 27 -20.5 87.5t-20.5 97t4 59t17 47.5q27 51 102.5 51t109 -25.5t40 -54t6.5 -73.5q0 -227 -260 -435zM84 950q0 41 4 64.5t18 50.5q25 53 123 53q102 0 127 -53q23 -43 23 -93t-4 -72.5t-17.5 -49.5t-45 -40t-89 -13t-91.5 26.5t-41 56t-7 70.5z " />
<glyph unicode="&#x3c;" horiz-adv-x="1187" d="M182 530v238l824 352v-209l-652 -262l652 -262v-209z" />
<glyph unicode="=" horiz-adv-x="1187" d="M176 336v188h836v-188h-836zM176 778v189h836v-189h-836z" />
<glyph unicode="&#x3e;" horiz-adv-x="1187" d="M182 178v209l649 262l-649 262v209l824 -352v-238z" />
<glyph unicode="?" horiz-adv-x="958" d="M41 1169q16 168 128 261.5t320.5 93.5t330.5 -126t122 -297t-113.5 -282.5t-293.5 -165.5l-23 -225h-172l-18 320q186 57 266 138t80 187.5t-48.5 175t-146.5 68.5q-180 0 -197 -180zM283 137q0 41 4 64.5t16 50.5q29 53 125 53q100 0 129 -53q20 -43 20.5 -93t-4 -73 t-17.5 -49.5t-45 -39.5t-89 -13t-91 26.5t-41 56t-7 70.5z" />
<glyph unicode="@" horiz-adv-x="2154" d="M152 672q0 420 233 661.5t688 241.5t692.5 -219t237.5 -608q0 -229 -90 -355q-102 -137 -379 -137h-244l-67 98q-127 -119 -275 -118q-313 0 -313 460.5t381 460.5q141 0 276 -65l51 65h107v-721h59q143 0 198.5 69.5t55.5 242.5q0 285 -157.5 458.5t-511.5 173.5 q-377 0 -537 -196q-147 -182 -147 -512q0 -135 15 -236.5t60 -195t121 -150.5q160 -127 488 -127h356v-194h-356q-614 0 -820 354q-123 211 -122 549zM881 696q0 -274 170 -274q78 0 149 72v454q-53 20 -117 21q-109 0 -155.5 -67.5t-46.5 -205.5z" />
<glyph unicode="A" horiz-adv-x="1314" d="M16 0l461 1495h363l458 -1495h-268l-127 414h-491l-125 -414h-271zM475 625h365l-183 606z" />
<glyph unicode="B" horiz-adv-x="1280" d="M193 0v1495h471q276 0 385 -123q96 -111 96 -260q0 -256 -219 -340q147 -41 215.5 -143.5t68.5 -229.5q0 -158 -96 -270q-49 -59 -147.5 -94t-233.5 -35h-540zM471 215h246q106 0 160.5 59.5t54.5 162t-54.5 161.5t-160.5 59h-246v-442zM471 870h188q98 0 152.5 54.5 t54.5 149.5t-54 150.5t-153 55.5h-188v-410z" />
<glyph unicode="C" horiz-adv-x="1282" d="M115 747.5q0 196.5 27.5 333t95.5 238.5q133 205 483 205q252 0 362.5 -113t135.5 -332l-226 -35q-12 123 -75.5 188.5t-196.5 65.5q-193 0 -260.5 -125.5t-67.5 -423.5t67.5 -425t260.5 -127q150 0 212 81.5t66 237.5l226 -10q-16 -264 -126 -399.5t-378 -135.5 q-350 0 -483 205q-68 102 -95.5 238.5t-27.5 333z" />
<glyph unicode="D" horiz-adv-x="1429" d="M193 0v1495h497q362 0 492 -221q63 -106 87.5 -231t24.5 -278t-14 -257.5t-54 -203.5t-106 -163q-145 -141 -430 -141h-497zM471 215h182q219 0 297 158q66 137 66 374.5t-66 374.5q-78 158 -297 158h-182v-1065z" />
<glyph unicode="E" horiz-adv-x="1146" d="M193 0v1495h843v-215h-565v-414h514v-213h-514v-438h606v-215h-884z" />
<glyph unicode="F" horiz-adv-x="1048" d="M193 0v1495h802v-215h-524v-414h457v-213h-457v-653h-278z" />
<glyph unicode="G" horiz-adv-x="1423" d="M115 750.5q0 193.5 27.5 330t95.5 238.5q133 205 483 205q252 0 362.5 -113t135.5 -332l-226 -35q-12 123 -75.5 188.5t-196.5 65.5q-193 0 -260.5 -127t-67.5 -419.5t67 -423.5t253 -131q295 0 299 319v70h-230v178h469v-764h-139l-47 150q-131 -178 -369 -179 q-336 0 -463 209q-66 106 -92 241.5t-26 329z" />
<glyph unicode="H" horiz-adv-x="1495" d="M193 0v1495h278v-641h553v641h279v-1495h-279v641h-553v-641h-278z" />
<glyph unicode="I" horiz-adv-x="663" d="M193 0v1495h278v-1495h-278z" />
<glyph unicode="J" horiz-adv-x="993" d="M8 424h242q0 -127 32.5 -177t119.5 -50t119 38.5t32 139.5v1120h278v-1120q0 -94 -13 -155.5t-54 -125.5q-82 -123 -367 -123q-231 0 -311 99q-53 68 -63 137q-14 96 -15 217z" />
<glyph unicode="K" horiz-adv-x="1271" d="M193 0v1495h278v-631h104l379 631h287l-450 -737l489 -758h-297l-420 653h-92v-653h-278z" />
<glyph unicode="L" horiz-adv-x="989" d="M193 0v1495h278v-1280h510v-215h-788z" />
<glyph unicode="M" horiz-adv-x="1812" d="M172 0l37 1495h391l293 -944l319 944h390l38 -1495h-274l-23 1151l-333 -973h-242l-301 940l-21 -1118h-274z" />
<glyph unicode="N" horiz-adv-x="1550" d="M193 0v1495h294l592 -1018v1018h279v-1495h-295l-592 1016v-1016h-278z" />
<glyph unicode="O" horiz-adv-x="1452" d="M115 748q0 174 26.5 305t91.5 241q131 229 492 230q410 0 541 -318q71 -176 71 -450v-8q0 -176 -26.5 -307.5t-92 -242t-189.5 -169t-286.5 -58.5t-271.5 40t-176.5 106.5t-108.5 169.5q-71 178 -71 453v8zM393 748q0 -410 166 -510q68 -41 166 -41q186 0 260 145 t74 405.5t-74 405.5t-260 145q-197 0 -268 -159q-63 -145 -64 -391z" />
<glyph unicode="P" horiz-adv-x="1222" d="M193 0v1495h516q270 0 381 -147q96 -133 96 -336q0 -201 -96 -332q-111 -150 -381 -150h-238v-530h-278zM471 745h195q242 0 242 266q0 269 -242 269h-195v-535z" />
<glyph unicode="Q" horiz-adv-x="1431" d="M115 770q0 170 25.5 304t91 240.5t185.5 158t298 51.5t299 -52.5t185.5 -158t91 -239.5t26.5 -371.5t-61.5 -412.5t-217.5 -255l271 -115l-111 -215l-541 268q-373 18 -477 308q-37 98 -51 208.5t-14 280.5zM393 747.5q0 -278.5 68.5 -414.5t254 -136t254 136t68.5 414.5 t-68.5 414.5t-254 136t-254 -136t-68.5 -414.5z" />
<glyph unicode="R" horiz-adv-x="1351" d="M193 0v1495h522q285 0 395 -149q94 -129 94 -304q0 -309 -241 -409q45 -49 77 -123l228 -510h-297l-213 485q-29 61 -62.5 84t-101.5 23h-123v-592h-278zM471 807h211q123 0 183.5 67.5t60.5 169t-60.5 169t-183.5 67.5h-211v-473z" />
<glyph unicode="S" horiz-adv-x="1234" d="M90 408l223 34q12 -121 83 -187.5t198 -66.5q272 0 272 207q0 88 -51 133t-197 82l-116 29q-205 51 -293 151.5t-88 300t129 316.5t382 117t364.5 -112t138.5 -325l-222 -34q-27 254 -262 254q-129 0 -190.5 -56.5t-61.5 -148.5t47.5 -137t180.5 -80l129 -35 q209 -53 299 -151.5t90 -295t-135.5 -314.5t-397.5 -118t-378.5 112t-143.5 325z" />
<glyph unicode="T" horiz-adv-x="1054" d="M-4 1284v211h1063v-211h-391v-1284h-279v1284h-393z" />
<glyph unicode="U" horiz-adv-x="1439" d="M162 494v1001h278v-981q0 -190 74 -252.5t205 -62.5q63 0 106 10t86 41q88 63 88 264v981h279v-1001q0 -137 -35 -235.5t-86 -153t-131 -86t-148.5 -40t-158.5 -8.5t-158.5 8.5t-148.5 40t-130.5 86t-85 152.5t-34.5 236z" />
<glyph unicode="V" horiz-adv-x="1288" d="M20 1495h279l344 -1225l344 1225h281l-445 -1495h-360z" />
<glyph unicode="W" horiz-adv-x="1857" d="M45 1495h279l221 -1219l246 1219h276l244 -1219l223 1219h278l-288 -1495h-404l-192 932l-191 -932h-403z" />
<glyph unicode="X" horiz-adv-x="1273" d="M10 1495h318l336 -518l311 518h293l-457 -745l487 -750h-317l-354 545l-322 -545h-291l467 770z" />
<glyph unicode="Y" horiz-adv-x="1175" d="M-12 1495h278l322 -715l321 715h279l-461 -975v-520h-278v520z" />
<glyph unicode="Z" horiz-adv-x="1150" d="M45 0v176l707 1104h-666v215h999v-176l-706 -1104h727v-215h-1061z" />
<glyph unicode="[" horiz-adv-x="671" d="M147 -135v1640h506v-188h-225v-1264h225v-188h-506z" />
<glyph unicode="\" horiz-adv-x="729" d="M-16 1587h276l485 -1804h-276z" />
<glyph unicode="]" horiz-adv-x="671" d="M18 53h226v1264h-226v188h506v-1640h-506v188z" />
<glyph unicode="^" horiz-adv-x="1187" d="M164 647l311 619h238l311 -619h-209l-221 469l-221 -469h-209z" />
<glyph unicode="_" horiz-adv-x="1155" d="M127 0h901v-188h-901v188z" />
<glyph unicode="`" horiz-adv-x="610" d="M33 1493l123 197l399 -273l-92 -147z" />
<glyph unicode="a" horiz-adv-x="1222" d="M94 291.5q0 146.5 92.5 236.5t343.5 127l246 37v99q0 198 -186 198h-2q-178 0 -211 -180l-213 63q78 328 440 328q446 0 447 -407v-793h-179l-77 143q-164 -172 -383 -172q-156 0 -237 87t-81 233.5zM360 303.5q0 -61.5 37 -96.5t103 -35q139 0 276 137v211l-196 -35 q-133 -23 -176.5 -71.5t-43.5 -110z" />
<glyph unicode="b" horiz-adv-x="1286" d="M193 0v1540l274 21v-418q139 57 274 57q471 0 471 -614.5t-471 -614.5q-186 0 -354 107l-63 -78h-131zM467 229q88 -47 192 -47q279 0 279 403.5t-272 403.5q-98 0 -199 -41v-719z" />
<glyph unicode="c" horiz-adv-x="1097" d="M74 587q0 132 19.5 233.5t70.5 191.5q104 188 399 188q248 0 356.5 -101.5t122.5 -301.5l-213 -29q-4 115 -60 168t-186 53t-182.5 -98t-52.5 -305t52.5 -305.5t182.5 -98.5t186 53.5t60 167.5l215 -10q-12 -209 -121.5 -315.5t-359.5 -106.5q-293 0 -399 191 q-51 92 -70.5 192.5t-19.5 232.5z" />
<glyph unicode="d" horiz-adv-x="1286" d="M74 585.5q0 614.5 479 614.5q135 0 266 -49v389l275 21v-1561h-179l-75 145q-170 -174 -371 -174q-395 0 -395 614.5zM348 586q1 -404 230 -404q127 0 241 131v635q-100 41 -196 41q-147 0 -211 -102.5t-64 -300.5z" />
<glyph unicode="e" horiz-adv-x="1153" d="M74 586q0 614 516 614q297 0 405 -184q94 -158 95 -410v-74h-750q2 -193 63.5 -271.5t202.5 -78.5q227 0 242 164l225 -8q-33 -367 -475 -367q-283 0 -403.5 152.5t-120.5 462.5zM346 719h473q-12 137 -63 203.5t-168 66.5t-171.5 -64.5t-70.5 -205.5z" />
<glyph unicode="f" horiz-adv-x="718" d="M90 993v178h127v80q0 336 354 336q133 0 234 -37l-68 -207q-69 29 -137 29q-109 0 -108 -121v-80h221v-178h-221v-993h-275v993h-127z" />
<glyph unicode="g" horiz-adv-x="1183" d="M45 -186q0 68 39 122t96 82q-125 39 -125 183q0 94 74 174l94 98q-96 111 -96 299q0 166 90 287q102 141 373 141q117 0 203 -29h342v-161h-136q55 -100 55 -210l1 -5q0 -107 -21 -175q-20 -69 -68 -134.5t-144.5 -103.5t-226.5 -38t-216 31l-57 -62q-35 -35 -35 -67 q0 -49 67 -49h437q162 0 255 -88.5t93 -207t-49.5 -188t-141.5 -102.5q-156 -55 -398.5 -55t-373.5 58t-131 200zM295 -126q0 -73 66.5 -93.5t220 -20.5t218 23.5t64.5 101.5q0 115 -159 115h-351q-59 -53 -59 -126zM389 772q0 -246 202 -246t202 246t-202 246t-202 -246z " />
<glyph unicode="h" horiz-adv-x="1357" d="M193 0v1540l274 21v-461q168 100 353.5 100t275.5 -99.5t90 -273.5v-827h-275v799q0 104 -37.5 147t-132.5 43q-147 0 -274 -92v-897h-274z" />
<glyph unicode="i" horiz-adv-x="659" d="M176 1469.5q0 158.5 154 158.5q158 0 158 -158.5t-158 -158.5q-154 0 -154 158.5zM193 0v1171h274v-1171h-274z" />
<glyph unicode="j" horiz-adv-x="659" d="M-123 -393l68 207q67 -27 139 -27q109 0 109 121v1263h274v-1263q0 -336 -354 -336q-131 0 -236 35zM176 1469.5q0 158.5 154 158.5q158 0 158 -158.5t-158 -158.5q-154 0 -154 158.5z" />
<glyph unicode="k" horiz-adv-x="1177" d="M193 0v1540l274 21v-836h84l309 446h297l-393 -557l430 -614h-297l-373 541h-57v-541h-274z" />
<glyph unicode="l" horiz-adv-x="659" d="M193 0v1540l274 37v-1577h-274z" />
<glyph unicode="m" horiz-adv-x="2043" d="M193 0v1171h145l72 -96q166 125 350 125q246 0 344 -141q176 141 375.5 141t296 -99.5t96.5 -273.5v-827h-275v782q0 106 -38.5 156.5t-137.5 50.5q-139 0 -256 -96q4 -41 4 -66v-827h-274v782q0 106 -41 156.5t-156.5 50.5t-230.5 -82v-907h-274z" />
<glyph unicode="n" horiz-adv-x="1357" d="M193 0v1171h129l88 -106q193 135 394.5 135t291.5 -99.5t90 -273.5v-827h-275v799q0 104 -37.5 147t-132.5 43q-147 0 -274 -92v-897h-274z" />
<glyph unicode="o" horiz-adv-x="1212" d="M74 585.5q0 614.5 532.5 614.5t532.5 -614.5t-532.5 -614.5t-532.5 614.5zM348 585.5q0 -198.5 53.5 -301t205 -102.5t204.5 102.5t53 301t-53 301t-204.5 102.5t-205 -102.5t-53.5 -301z" />
<glyph unicode="p" horiz-adv-x="1286" d="M193 -457v1628h131l71 -88q174 117 346 117q471 0 471 -614.5t-479 -614.5q-123 0 -266 41v-432zM467 211q96 -29 197 -29q147 0 210.5 103.5t63.5 300.5q0 403 -272 403q-104 0 -199 -57v-721z" />
<glyph unicode="q" horiz-adv-x="1286" d="M74 585.5q0 614.5 477 614.5q193 0 348 -106l66 77h129v-1591l-275 -37v482q-145 -53 -268 -54q-477 0 -477 614.5zM349 585.5q0 -403.5 276 -403.5q100 0 194 37v721q-90 49 -194 49q-276 0 -276 -403.5z" />
<glyph unicode="r" horiz-adv-x="833" d="M193 0v1171h129l108 -182q141 201 399 211v-235q-242 -6 -362 -148v-817h-274z" />
<glyph unicode="s" horiz-adv-x="1118" d="M88 342l213 33q23 -197 245 -197t222 139q0 57 -44 86t-177 60l-94 22q-182 43 -261 126t-79 241q0 348 475 348q205 0 306 -93t126 -271l-213 -31q-23 195 -225 195h-2q-204 0 -203 -140q0 -57 40 -87t163 -58l106 -27q182 -45 263 -125.5t81 -234.5q0 -350 -491 -351 q-215 0 -319.5 93.5t-131.5 271.5z" />
<glyph unicode="t" horiz-adv-x="737" d="M18 993v178h189v213l274 70v-283h224v-178h-224v-661q0 -88 25.5 -125t76 -37t109.5 16l35 -170q-121 -45 -216 -45t-152.5 22.5t-86 52.5t-43.5 81q-22 69 -22 169v9v688h-189z" />
<glyph unicode="u" horiz-adv-x="1359" d="M172 344v827h274v-782q0 -106 42 -156.5t141 -50.5q139 0 264 131v858h274v-1171h-178l-78 141q-160 -170 -379 -170q-360 0 -360 373z" />
<glyph unicode="v" horiz-adv-x="1116" d="M8 1171h277l272 -847l274 847h277l-397 -1171h-305z" />
<glyph unicode="w" horiz-adv-x="1552" d="M18 1171h277l172 -802l192 700h232l192 -700l174 802h277l-299 -1171h-260l-199 709l-198 -709h-259z" />
<glyph unicode="x" horiz-adv-x="1085" d="M4 0l395 588l-376 583h301l229 -356l233 356h277l-373 -569l391 -602h-301l-245 377l-254 -377h-277z" />
<glyph unicode="y" horiz-adv-x="1110" d="M8 1171h277l280 -815l254 815h281l-586 -1656l-244 36l166 433z" />
<glyph unicode="z" horiz-adv-x="1042" d="M68 0v168l565 811h-545v192h868v-167l-561 -811h580v-193h-907z" />
<glyph unicode="{" horiz-adv-x="673" d="M25 602v168q47 0 92 20.5t45 69.5l-17 232q0 188 121 301.5t389 113.5v-192q-227 0 -227 -266l16 -222q0 -57 -29.5 -91t-70.5 -34v-10q41 0 70.5 -34.5t29.5 -90.5l-16 -231q0 -279 227 -279v-192q-268 0 -389 113.5t-121 302.5l17 231q0 49 -45 69.5t-92 20.5z" />
<glyph unicode="|" horiz-adv-x="690" d="M197 -217v1804h297v-1804h-297z" />
<glyph unicode="}" horiz-adv-x="673" d="M18 57q228 0 228 285l-15 236q0 57 29 92t70 35v10q-41 0 -70 34.5t-29 92.5l15 235q0 113 -51.5 175.5t-176.5 62.5v192q270 0 390 -112.5t120 -302.5l-16 -232q0 -49 43 -69.5t94 -20.5v-168q-51 0 -94 -20.5t-43 -69.5l16 -231q0 -190 -119.5 -303t-390.5 -113v192z " />
<glyph unicode="~" horiz-adv-x="1187" d="M176 557v188q70 -49 165 -49t252 44t250 44t169 -39v-188q-78 43 -170 43t-249 -44t-249 -44t-168 45z" />
<glyph unicode="&#xa1;" horiz-adv-x="610" d="M156 61l69 695h162l70 -695v-372h-301v372zM156 1031q0 56 7 86t42 56.5t99.5 26.5t99 -26.5t41 -56.5t6.5 -78t-6.5 -77.5t-41 -56t-91 -26.5t-89.5 13t-47 40q-20 43 -20 99z" />
<glyph unicode="&#xa2;" horiz-adv-x="1290" d="M137 738q0 603 449 671v250h184v-244q367 -33 399 -450l-217 -11q-4 111 -64.5 180.5t-165 69.5t-166.5 -34.5t-93 -104.5q-51 -119 -51 -317q0 -457 275.5 -457t281.5 219l217 -14q-31 -379 -416 -414v-248h-184v248q-449 53 -449 656z" />
<glyph unicode="&#xa3;" horiz-adv-x="1290" d="M127 610v187h133v276q0 219 107.5 335t359.5 116t357.5 -113t105.5 -342l-242 -18q0 256 -209 256q-115 0 -157.5 -58.5t-42.5 -175.5v-276h430v-187h-430v-166q0 -86 -21.5 -135t-73.5 -92h768v-217h-1075v170q123 82 123 229v211h-133z" />
<glyph unicode="&#xa4;" horiz-adv-x="1290" d="M68 301l188 186q-57 109 -57 257.5t59 259.5l-190 190l131 131l184 -184q115 74 272.5 73.5t262.5 -63.5l174 174l131 -131l-176 -176q66 -113 65.5 -269.5t-68.5 -271.5l179 -176l-131 -131l-179 176q-111 -66 -270.5 -65.5t-263.5 71.5l-180 -182zM442 747.5 q0 -98.5 47.5 -165t161 -66.5t165.5 66.5t52 165t-47 165t-160.5 66.5t-166 -66.5t-52.5 -165z" />
<glyph unicode="&#xa5;" horiz-adv-x="1290" d="M63 1495h283l299 -614l301 614h281l-271 -530h197v-185h-291l-76 -149h367v-187h-373v-444h-270v444h-369v187h363l-76 149h-287v185h193z" />
<glyph unicode="&#xa6;" horiz-adv-x="690" d="M197 -217v725h297v-725h-297zM197 862v725h297v-725h-297z" />
<glyph unicode="&#xa7;" horiz-adv-x="1032" d="M49 610q0 244 260 367q-100 139 -100 287.5t121 259t329 159.5l64 -196q-94 -20 -167 -70.5t-73 -117t15.5 -103.5t58.5 -86l272 -324q154 -160 154 -342q0 -242 -258 -366q98 -131 98 -283.5t-119.5 -263.5t-330.5 -162l-64 199q94 20 167 70.5t73 117t-18.5 105.5 t-73.5 104l-260 307q-147 174 -148 338zM324 649q0 -59 15 -96t58 -86l185 -221q127 59 127 157q0 61 -17.5 100.5t-75.5 104.5l-167 197q-125 -61 -125 -156z" />
<glyph unicode="&#xa8;" horiz-adv-x="761" d="M18.5 1454q-0.5 47 4 68.5t16.5 46.5q25 53 117 53q96 0 120 -53q20 -41 20.5 -88t-3.5 -68.5t-16.5 -46.5t-43 -37t-77.5 -12t-76 12t-41 37q-20 41 -20.5 88zM465 1454q0 47 4 68.5t16 46.5q25 53 117 53q96 0 121 -53q20 -41 20 -88t-4 -68.5t-16 -46.5t-43 -37 t-78 -12t-75.5 12t-41.5 37q-20 41 -20 88z" />
<glyph unicode="&#xa9;" horiz-adv-x="1505" d="M102 1147.5q0 316.5 167 483.5t483.5 167t483.5 -168t167 -483.5t-167 -482t-484.5 -166.5t-483.5 166.5t-166 483zM250 1148q0 -513 502.5 -513t502.5 513t-502.5 513t-502.5 -513zM416 1147q0 213 73.5 320.5t243.5 107.5q270 0 295 -260l-137 -10q-6 78 -42 114.5 t-112 36.5q-166 0 -166 -307t168 -307q150 0 156 182l135 -6q-16 -297 -295 -297q-178 0 -248.5 106.5t-70.5 319.5z" />
<glyph unicode="&#xaa;" horiz-adv-x="909" d="M66 418v157h731v-157h-731zM80 929.5q0 106.5 66.5 172t250.5 92.5l138 18v58q0 100 -99.5 100t-116.5 -104l-190 57q31 119 107 176t217 57q330 0 329 -284v-555h-159l-72 80q-104 -100 -226 -100.5t-183.5 63t-61.5 170zM317 942q0 -68 74 -68t144 60v131l-86 -16 q-132 -25 -132 -107z" />
<glyph unicode="&#xab;" horiz-adv-x="1097" d="M45 596v98l369 391l133 -131l-234 -309l234 -309l-133 -131zM518 596v98l369 391l133 -131l-234 -309l234 -309l-133 -131z" />
<glyph unicode="&#xac;" horiz-adv-x="1187" d="M176 557v188h836v-471h-181v283h-655z" />
<glyph unicode="&#xad;" horiz-adv-x="974" d="M127 557v188h721v-188h-721z" />
<glyph unicode="&#xae;" horiz-adv-x="1505" d="M102 1147.5q0 316.5 167 483.5t483.5 167t483.5 -168t167 -483.5t-167 -482t-484.5 -166.5t-483.5 166.5t-166 483zM250 1148q0 -513 502.5 -513t502.5 513t-502.5 513t-502.5 -513zM496 737v824h268q174 0 227 -86q43 -70 43 -158q0 -195 -133 -234q29 -27 49 -71 l119 -275h-164l-114 267q-23 55 -74 55h-66v-322h-155zM651 1176h111q117 0 117 133t-117 133h-111v-266z" />
<glyph unicode="&#xaf;" horiz-adv-x="724" d="M86 1372v199h553v-199h-553z" />
<glyph unicode="&#xb0;" horiz-adv-x="837" d="M53 1075q0 86 11.5 144.5t46 117t111.5 88t196 29.5t196.5 -29.5t112.5 -88t46 -117t11 -135t-6 -125t-27.5 -101.5t-60.5 -86t-107.5 -54.5t-176 -21.5t-184.5 30t-111.5 89t-46 116.5t-11.5 143.5zM283 1075.5q0 -106.5 23.5 -149.5t111.5 -43t112.5 43t24.5 149.5 t-24.5 150.5t-112.5 44t-111.5 -44t-23.5 -150.5z" />
<glyph unicode="&#xb1;" horiz-adv-x="1187" d="M176 0v188h836v-188h-836zM176 659v189h324v323h188v-323h324v-189h-324v-323h-188v323h-324z" />
<glyph unicode="&#xb2;" horiz-adv-x="792" d="M78 696v138l280 292q92 98 92.5 168t-79.5 70q-45 0 -66.5 -20.5t-23.5 -69.5l-201 22q20 248 311 248q145 0 218 -68.5t73 -177t-125 -245.5l-162 -181h303v-176h-620z" />
<glyph unicode="&#xb3;" horiz-adv-x="792" d="M78 926l201 24q6 -96 104 -96t98 86q0 98 -151 98h-19v138h21q143 0 143 108q0 35 -22.5 57.5t-63.5 22.5q-82 0 -92 -88l-203 24q8 133 82 188.5t222.5 55.5t225 -71.5t76.5 -190.5t-122 -172q135 -53 135 -188q0 -96 -88 -169t-235.5 -73t-225.5 56.5t-86 189.5z" />
<glyph unicode="&#xb4;" horiz-adv-x="610" d="M55 1417l400 273l123 -197l-431 -223z" />
<glyph unicode="&#xb5;" horiz-adv-x="1280" d="M197 -465v1636h274v-907q127 -82 248 -82t162 49.5t41 157.5v782h274v-827q0 -373 -362 -373q-182 0 -363 95v-531h-274z" />
<glyph unicode="&#xb6;" horiz-adv-x="1050" d="M29 960.5q0 174.5 105.5 293t314.5 118.5h368v-1372h-278v551h-90q-209 0 -314.5 117.5t-105.5 292z" />
<glyph unicode="&#xb7;" horiz-adv-x="479" d="M92 680q0 41 4 64.5t19 50.5q25 53 123 53q102 0 127 -53q23 -43 22.5 -93.5t-4.5 -73t-17.5 -49t-45 -40t-89 -13.5t-91.5 27t-41 56.5t-7 70.5z" />
<glyph unicode="&#xb8;" horiz-adv-x="579" d="M53 -266h172q0 -76 66 -76q29 0 45 13.5t19 27.5t3 37q0 63 -73 76l-109 18l19 98h90q117 0 179 -42t62 -154.5t-52 -169t-185 -56.5q-236 1 -236 228z" />
<glyph unicode="&#xb9;" horiz-adv-x="792" d="M137 1329v135q141 14 209 62h195v-830h-236v633h-168z" />
<glyph unicode="&#xba;" horiz-adv-x="837" d="M33 1126q0 430 386 430t386 -430t-386 -430t-386 430zM53 418v157h731v-157h-731zM281 1126q0 -129 27.5 -186t110.5 -57t110.5 57t27.5 186t-27.5 186.5t-110.5 57.5t-110.5 -57.5t-27.5 -186.5z" />
<glyph unicode="&#xbb;" horiz-adv-x="1097" d="M66 336l233 309l-233 309l133 131l368 -391v-98l-368 -391zM539 336l233 309l-233 309l133 131l368 -391v-98l-368 -391z" />
<glyph unicode="&#xbc;" horiz-adv-x="1998" d="M147 1300v136q141 14 209 61h195v-829h-236v632h-168zM655 -74l439 1641h174l-441 -1641h-172zM1161 141v160l269 528h342v-512h67v-176h-67v-141h-216v141h-395zM1386 317h170v342z" />
<glyph unicode="&#xbd;" horiz-adv-x="1998" d="M147 1300v136q141 14 209 61h195v-829h-236v632h-168zM651 -74l439 1641h174l-441 -1641h-172zM1217 0v137l280 293q92 98 92 168t-80 70q-45 0 -66.5 -20.5t-23.5 -69.5l-200 22q20 248 311 248q145 0 218 -68.5t73 -177t-125 -246.5l-162 -180h303v-176h-620z" />
<glyph unicode="&#xbe;" horiz-adv-x="1998" d="M88 897l201 25q6 -96 104.5 -96.5t98.5 85.5q0 98 -152 99h-18v137h20q143 0 143 108q0 35 -22.5 57.5t-63.5 22.5q-82 0 -92 -88l-203 25q8 133 82 188.5t222.5 55.5t225.5 -72t77 -190.5t-123 -172.5q135 -53 135 -188q0 -96 -88 -169t-235.5 -73t-225.5 56.5 t-86 189.5zM696 -74l439 1641h174l-441 -1641h-172zM1161 141v160l269 528h342v-512h67v-176h-67v-141h-216v141h-395zM1386 317h170v342z" />
<glyph unicode="&#xbf;" horiz-adv-x="958" d="M37 83q0 171 113.5 282.5t293.5 164.5l23 226h172l18 -320q-186 -57 -266 -138t-80 -187.5t48.5 -175t146.5 -68.5q180 0 196 180l236 -33q-16 -168 -128 -261t-320.5 -93t-330.5 126t-122 297zM401.5 1025q-0.5 50 4 72.5t17.5 49.5t45 40t89 13t91 -26.5t41 -56.5 t7 -70.5t-4 -64.5t-16 -50q-29 -53 -125 -53q-100 0 -129 53q-20 43 -20.5 93z" />
<glyph unicode="&#xc0;" horiz-adv-x="1314" d="M16 0l461 1495h363l458 -1495h-268l-127 414h-491l-125 -414h-271zM408 1817l122 196l400 -272l-92 -148zM475 625h365l-183 606z" />
<glyph unicode="&#xc1;" horiz-adv-x="1314" d="M16 0l461 1495h363l458 -1495h-268l-127 414h-491l-125 -414h-271zM428 1741l399 272l123 -196l-430 -224zM475 625h365l-183 606z" />
<glyph unicode="&#xc2;" horiz-adv-x="1314" d="M16 0l461 1495h363l458 -1495h-268l-127 414h-491l-125 -414h-271zM354 1704l262 301h125l263 -301l-99 -98l-227 172l-225 -172zM475 625h365l-183 606z" />
<glyph unicode="&#xc3;" horiz-adv-x="1314" d="M16 0l461 1495h363l458 -1495h-268l-127 414h-491l-125 -414h-271zM315 1710q35 129 87.5 184.5t114 55.5t158.5 -37t128 -37q59 0 86 90l151 -49q-34 -129 -86.5 -184.5t-114 -55.5t-157.5 37t-127 37q-59 0 -86 -90zM475 625h365l-183 606z" />
<glyph unicode="&#xc4;" horiz-adv-x="1314" d="M16 0l461 1495h363l458 -1495h-268l-127 414h-491l-125 -414h-271zM315.5 1778q-0.5 47 4 68.5t16.5 45.5q25 53 117 54q96 0 120 -54q20 -41 20.5 -88t-3.5 -68.5t-16.5 -46t-43 -37t-77.5 -12.5t-76 12.5t-41 37.5q-20 41 -20.5 88zM475 625h365l-183 606zM762 1778 q0 47 4 68.5t16 45.5q25 53 117 54q96 0 121 -54q20 -41 20 -88t-4 -68.5t-16 -46t-43 -37t-78 -12.5t-75.5 12.5t-41.5 37.5q-20 41 -20 88z" />
<glyph unicode="&#xc5;" horiz-adv-x="1314" d="M16 0l461 1495h363l458 -1495h-268l-127 414h-491l-125 -414h-271zM449 1807.5q0 230.5 227 230.5q133 0 184 -68.5t51 -163t-51 -162t-184 -67.5q-227 0 -227 230.5zM475 625h365l-183 606zM600 1808.5q0 -100.5 76 -100.5q84 0 84 100.5t-84 100.5q-76 0 -76 -100.5z " />
<glyph unicode="&#xc6;" horiz-adv-x="1914" d="M23 0l624 1495h1157v-215h-565v-455h514v-213h-514v-397h606v-215h-884v612h-416l-252 -612h-270zM631 825h330v455h-142z" />
<glyph unicode="&#xc7;" horiz-adv-x="1282" d="M115 747.5q0 196.5 27.5 333t95.5 238.5q133 205 483 205q252 0 362.5 -113t135.5 -332l-226 -35q-12 123 -75.5 188.5t-196.5 65.5q-193 0 -260.5 -125.5t-67.5 -423.5t67.5 -425t260.5 -127q150 0 212 81.5t66 237.5l226 -10q-16 -264 -126 -399.5t-378 -135.5 q-350 0 -483 205q-68 102 -95.5 238.5t-27.5 333zM434 -266h172q0 -76 66 -76q29 0 45 13.5t19 27.5t3 37q0 63 -73 76l-109 18l18 98h91q117 0 179 -42t62 -154.5t-52 -169t-185 -56.5q-236 1 -236 228z" />
<glyph unicode="&#xc8;" horiz-adv-x="1146" d="M193 0v1495h843v-215h-565v-414h514v-213h-514v-438h606v-215h-884zM373 1817l123 196l399 -272l-92 -148z" />
<glyph unicode="&#xc9;" horiz-adv-x="1146" d="M193 0v1495h843v-215h-565v-414h514v-213h-514v-438h606v-215h-884zM410 1741l399 272l123 -196l-430 -224z" />
<glyph unicode="&#xca;" horiz-adv-x="1146" d="M193 0v1495h843v-215h-565v-414h514v-213h-514v-438h606v-215h-884zM319 1704l263 301h125l262 -301l-99 -98l-227 172l-225 -172z" />
<glyph unicode="&#xcb;" horiz-adv-x="1146" d="M193 0v1495h843v-215h-565v-414h514v-213h-514v-438h606v-215h-884zM281 1778q0 47 4 68.5t16 45.5q25 53 117 54q96 0 121 -54q20 -41 20 -88t-4 -68.5t-16.5 -46t-43 -37t-77.5 -12.5t-76 12.5t-41 37.5q-20 41 -20 88zM727.5 1778q-0.5 47 3.5 68.5t17 45.5 q25 53 116 54q96 0 121 -54q20 -41 20.5 -88t-4 -68.5t-16.5 -46t-43 -37t-78 -12.5t-75.5 12.5t-40.5 37.5q-20 41 -20.5 88z" />
<glyph unicode="&#xcc;" horiz-adv-x="663" d="M61 1817l123 196l400 -272l-92 -148zM193 0v1495h278v-1495h-278z" />
<glyph unicode="&#xcd;" horiz-adv-x="663" d="M123 1741l399 272l123 -196l-430 -224zM193 0v1495h278v-1495h-278z" />
<glyph unicode="&#xce;" horiz-adv-x="663" d="M8 1704l262 301h125l262 -301l-98 -98l-227 172l-226 -172zM193 0v1495h278v-1495h-278z" />
<glyph unicode="&#xcf;" horiz-adv-x="663" d="M-30.5 1778q-0.5 47 3.5 68.5t17 45.5q25 53 116 54q96 0 121 -54q20 -41 20.5 -88t-3.5 -68.5t-16.5 -46t-43 -37t-78 -12.5t-76 12.5t-40.5 37.5q-20 41 -20.5 88zM193 0v1495h278v-1495h-278zM416 1778q0 47 4 68.5t16 45.5q25 53 117 54q96 0 121 -54q20 -41 20 -88 t-4 -68.5t-16 -46t-43 -37t-78 -12.5t-75.5 12.5t-41.5 37.5q-20 41 -20 88z" />
<glyph unicode="&#xd0;" horiz-adv-x="1429" d="M106 647v189h87v659h497q362 0 492 -221q63 -106 87.5 -231t24.5 -278t-14 -257.5t-54 -203.5t-106 -163q-145 -141 -430 -141h-497v647h-87zM471 215h182q219 0 297 158q66 137 66 374.5t-66 374.5q-78 158 -297 158h-182v-444h356v-189h-356v-432z" />
<glyph unicode="&#xd1;" horiz-adv-x="1550" d="M193 0v1495h294l592 -1018v1018h279v-1495h-295l-592 1016v-1016h-278zM430 1710q35 129 87 184.5t113.5 55.5t159 -37t128.5 -37q59 0 86 90l151 -49q-35 -129 -87 -184.5t-113.5 -55.5t-158 37t-126.5 37q-59 0 -86 -90z" />
<glyph unicode="&#xd2;" horiz-adv-x="1452" d="M115 748q0 174 26.5 305t91.5 241q131 229 492 230q410 0 541 -318q72 -178 71 -458q0 -176 -26.5 -307.5t-92 -242t-189.5 -169t-286.5 -58.5t-271.5 40t-176.5 106.5t-108.5 169.5q-72 180 -71 461zM393 748q0 -410 166 -510q68 -41 166 -41q186 0 260 145t74 405.5 t-74 405.5t-260 145q-197 0 -268 -159q-63 -145 -64 -391zM455 1817l123 196l399 -272l-92 -148z" />
<glyph unicode="&#xd3;" horiz-adv-x="1452" d="M115 748q0 174 26.5 305t91.5 241q131 229 492 230q410 0 541 -318q72 -178 71 -458q0 -176 -26.5 -307.5t-92 -242t-189.5 -169t-286.5 -58.5t-271.5 40t-176.5 106.5t-108.5 169.5q-72 180 -71 461zM393 748q0 -410 166 -510q68 -41 166 -41q186 0 260 145t74 405.5 t-74 405.5t-260 145q-197 0 -268 -159q-63 -145 -64 -391zM475 1741l399 272l123 -196l-430 -224z" />
<glyph unicode="&#xd4;" horiz-adv-x="1452" d="M115 748q0 174 26.5 305t91.5 241q131 229 492 230q410 0 541 -318q72 -178 71 -458q0 -176 -26.5 -307.5t-92 -242t-189.5 -169t-286.5 -58.5t-271.5 40t-176.5 106.5t-108.5 169.5q-72 180 -71 461zM393 748q0 -410 166 -510q68 -41 166 -41q186 0 260 145t74 405.5 t-74 405.5t-260 145q-197 0 -268 -159q-63 -145 -64 -391zM401 1704l263 301h124l263 -301l-99 -98l-227 172l-225 -172z" />
<glyph unicode="&#xd5;" horiz-adv-x="1452" d="M115 748q0 174 26.5 305t91.5 241q131 229 492 230q410 0 541 -318q72 -178 71 -458q0 -176 -26.5 -307.5t-92 -242t-189.5 -169t-286.5 -58.5t-271.5 40t-176.5 106.5t-108.5 169.5q-72 180 -71 461zM362 1710q35 129 87.5 184.5t114 55.5t158.5 -37t128 -37q59 0 86 90 l151 -49q-34 -129 -86.5 -184.5t-114 -55.5t-157.5 37t-127 37q-59 0 -86 -90zM393 748q0 -410 166 -510q68 -41 166 -41q186 0 260 145t74 405.5t-74 405.5t-260 145q-197 0 -268 -159q-63 -145 -64 -391z" />
<glyph unicode="&#xd6;" horiz-adv-x="1452" d="M115 748q0 174 26.5 305t91.5 241q131 229 492 230q410 0 541 -318q72 -178 71 -458q0 -176 -26.5 -307.5t-92 -242t-189.5 -169t-286.5 -58.5t-271.5 40t-176.5 106.5t-108.5 169.5q-72 180 -71 461zM362.5 1778q-0.5 47 4 68.5t16.5 45.5q25 53 117 54q96 0 121 -54 q20 -41 20 -88t-4 -68.5t-16.5 -46t-43 -37t-77.5 -12.5t-76 12.5t-41 37.5q-20 41 -20.5 88zM393 748q0 -410 166 -510q68 -41 166 -41q186 0 260 145t74 405.5t-74 405.5t-260 145q-197 0 -268 -159q-63 -145 -64 -391zM809 1778q0 47 4 68.5t16 45.5q25 53 117 54 q96 0 121 -54q20 -41 20 -88t-4 -68.5t-16 -46t-43 -37t-78 -12.5t-75.5 12.5t-41.5 37.5q-20 41 -20 88z" />
<glyph unicode="&#xd7;" horiz-adv-x="1187" d="M195 387l266 264l-266 264l135 136l264 -267l264 267l135 -136l-266 -264l266 -264l-135 -135l-264 266l-264 -266z" />
<glyph unicode="&#xd8;" horiz-adv-x="1452" d="M115 766q0 156 26.5 287t91.5 241q131 229 492 230q35 0 92 -4l41 174h174l-49 -211q195 -74 274.5 -262.5t79.5 -472.5q0 -176 -26.5 -307.5t-91.5 -241.5q-135 -227 -494 -228q-51 0 -94 6l-39 -170h-172l47 203q-203 74 -283 277q-69 186 -69 479zM393 748 q0 -365 131 -484l242 1032l-41 2q-197 0 -268 -159q-63 -145 -64 -391zM682 199q14 -2 43 -2q186 0 260 145t74 406q0 362 -135 481z" />
<glyph unicode="&#xd9;" horiz-adv-x="1439" d="M162 494v1001h278v-981q0 -190 74 -252.5t205 -62.5q63 0 106 10t86 41q88 63 88 264v981h279v-1001q0 -137 -35 -235.5t-86 -153t-131 -86t-148.5 -40t-158.5 -8.5t-158.5 8.5t-148.5 40t-130.5 86t-85 152.5t-34.5 236zM395 1817l123 196l400 -272l-93 -148z" />
<glyph unicode="&#xda;" horiz-adv-x="1439" d="M162 494v1001h278v-981q0 -190 74 -252.5t205 -62.5q63 0 106 10t86 41q88 63 88 264v981h279v-1001q0 -137 -35 -235.5t-86 -153t-131 -86t-148.5 -40t-158.5 -8.5t-158.5 8.5t-148.5 40t-130.5 86t-85 152.5t-34.5 236zM580 1741l399 272l123 -196l-430 -224z" />
<glyph unicode="&#xdb;" horiz-adv-x="1439" d="M162 494v1001h278v-981q0 -190 74 -252.5t205 -62.5q63 0 106 10t86 41q88 63 88 264v981h279v-1001q0 -137 -35 -235.5t-86 -153t-131 -86t-148.5 -40t-158.5 -8.5t-158.5 8.5t-148.5 40t-130.5 86t-85 152.5t-34.5 236zM401 1704l263 301h124l263 -301l-99 -98 l-227 172l-225 -172z" />
<glyph unicode="&#xdc;" horiz-adv-x="1439" d="M162 494v1001h278v-981q0 -190 74 -252.5t205 -62.5q63 0 106 10t86 41q88 63 88 264v981h279v-1001q0 -137 -35 -235.5t-86 -153t-131 -86t-148.5 -40t-158.5 -8.5t-158.5 8.5t-148.5 40t-130.5 86t-85 152.5t-34.5 236zM365 1778q0 47 4 68.5t16 45.5q25 53 117 54 q96 0 121 -54q20 -41 20 -88t-4 -68.5t-16.5 -46t-43 -37t-77.5 -12.5t-76 12.5t-41 37.5q-20 41 -20 88zM811 1778q0 47 4 68.5t16 45.5q25 53 117 54q96 0 121 -54q20 -41 20.5 -88t-4 -68.5t-16.5 -46t-43 -37t-78 -12.5t-75.5 12.5t-41.5 37.5q-20 41 -20 88z" />
<glyph unicode="&#xdd;" horiz-adv-x="1175" d="M-12 1495h278l322 -715l321 715h279l-461 -975v-520h-278v520zM369 1741l399 272l123 -196l-430 -224z" />
<glyph unicode="&#xde;" horiz-adv-x="1202" d="M193 0v1495h278v-283h229q252 0 358.5 -130t106.5 -335.5t-106.5 -335.5t-358.5 -130h-229v-281h-278zM471 506h184q129 0 180.5 63.5t51.5 177t-51.5 177t-180.5 63.5h-184v-481z" />
<glyph unicode="&#xdf;" horiz-adv-x="1351" d="M213 0v1081q0 446 504 447q227 0 348 -112.5t121 -304t-170 -323.5q147 -30 227 -132.5t80 -276.5t-99.5 -291t-295 -117t-281.5 100.5t-86 327.5h223q0 -117 28 -164t101 -47q135 0 136 236q0 121 -49.5 173t-161.5 52h-207v203h106q88 0 131 63.5t43 165.5 q0 229 -217 230q-207 0 -207 -230v-1081h-274z" />
<glyph unicode="&#xe0;" horiz-adv-x="1222" d="M94 291.5q0 146.5 92.5 236.5t343.5 127l246 37v99q0 199 -188 198q-178 0 -211 -180l-213 63q78 328 440 328q446 0 447 -407v-793h-179l-77 143q-164 -172 -383 -172q-156 0 -237 87t-81 233.5zM322 1493l122 197l400 -273l-92 -147zM360 303.5q0 -61.5 37 -96.5 t103 -35q139 0 276 137v211l-196 -35q-133 -23 -176.5 -71.5t-43.5 -110z" />
<glyph unicode="&#xe1;" horiz-adv-x="1222" d="M94 291.5q0 146.5 92.5 236.5t343.5 127l246 37v99q0 199 -188 198q-178 0 -211 -180l-213 63q78 328 440 328q446 0 447 -407v-793h-179l-77 143q-164 -172 -383 -172q-156 0 -237 87t-81 233.5zM360 303.5q0 -61.5 37 -96.5t103 -35q139 0 276 137v211l-196 -35 q-133 -23 -176.5 -71.5t-43.5 -110zM436 1417l400 273l122 -197l-430 -223z" />
<glyph unicode="&#xe2;" horiz-adv-x="1222" d="M94 291.5q0 146.5 92.5 236.5t343.5 127l246 37v99q0 199 -188 198q-178 0 -211 -180l-213 63q78 328 440 328q446 0 447 -407v-793h-179l-77 143q-164 -172 -383 -172q-156 0 -237 87t-81 233.5zM268 1380l262 301h125l263 -301l-99 -98l-227 172l-225 -172zM360 303.5 q0 -61.5 37 -96.5t103 -35q139 0 276 137v211l-196 -35q-133 -23 -176.5 -71.5t-43.5 -110z" />
<glyph unicode="&#xe3;" horiz-adv-x="1222" d="M94 291.5q0 146.5 92.5 236.5t343.5 127l246 37v99q0 199 -188 198q-178 0 -211 -180l-213 63q78 328 440 328q446 0 447 -407v-793h-179l-77 143q-164 -172 -383 -172q-156 0 -237 87t-81 233.5zM229 1386q35 129 87.5 184.5t114 55.5t158.5 -37t128 -37q59 0 86 90 l151 -49q-34 -129 -86.5 -184t-114 -55t-157.5 36.5t-127 36.5q-59 0 -86 -90zM360 303.5q0 -61.5 37 -96.5t103 -35q139 0 276 137v211l-196 -35q-133 -23 -176.5 -71.5t-43.5 -110z" />
<glyph unicode="&#xe4;" horiz-adv-x="1222" d="M94 291.5q0 146.5 92.5 236.5t343.5 127l246 37v99q0 199 -188 198q-178 0 -211 -180l-213 63q78 328 440 328q446 0 447 -407v-793h-179l-77 143q-164 -172 -383 -172q-156 0 -237 87t-81 233.5zM264.5 1454q-0.5 47 3.5 68.5t17 46.5q25 53 116 53q96 0 121 -53 q20 -41 20.5 -88t-3.5 -68.5t-16.5 -46.5t-43 -37t-78 -12t-76 12t-40.5 37q-20 41 -20.5 88zM360 303.5q0 -61.5 37 -96.5t103 -35q139 0 276 137v211l-196 -35q-133 -23 -176.5 -71.5t-43.5 -110zM711 1454q0 47 4 68.5t16 46.5q25 53 117 53q96 0 121 -53q20 -41 20 -88 t-4 -68.5t-16.5 -46.5t-43 -37t-77.5 -12t-76 12t-41 37q-20 41 -20 88z" />
<glyph unicode="&#xe5;" horiz-adv-x="1222" d="M94 291.5q0 146.5 92.5 236.5t343.5 127l246 37v99q0 199 -188 198q-178 0 -211 -180l-213 63q78 328 440 328q446 0 447 -407v-793h-179l-77 143q-164 -172 -383 -172q-156 0 -237 87t-81 233.5zM360 303.5q0 -61.5 37 -96.5t103 -35q139 0 276 137v211l-196 -35 q-133 -23 -176.5 -71.5t-43.5 -110zM403.5 1483.5q-0.5 230.5 227.5 230.5q133 0 184 -68.5t51 -162.5t-51 -162t-184 -68q-227 0 -227.5 230.5zM555 1484.5q0 -100.5 76 -100.5q84 0 84 100.5t-84 100.5q-76 0 -76 -100.5z" />
<glyph unicode="&#xe6;" horiz-adv-x="1847" d="M92 290.5q0 145.5 90 236.5t340 132l238 39v93q0 199 -178.5 198.5t-210.5 -180.5l-215 57q78 334 440 334q229 0 340 -113q125 113 348 113q297 0 408 -184q92 -158 92 -410v-74h-750q2 -193 63.5 -271.5t202.5 -78.5q227 0 242 164l225 -8q-33 -367 -475 -367 q-322 0 -438 201q-201 -201 -451 -201q-152 0 -231.5 87t-79.5 232.5zM356 296q0 -60 36.5 -95t99.5 -35q170 0 305 139q-27 121 -29 207l-197 -37q-131 -25 -173 -72t-42 -107zM1040 719h473q-12 137 -63 203.5t-168 66.5t-171 -64.5t-71 -205.5z" />
<glyph unicode="&#xe7;" horiz-adv-x="1097" d="M74 587q0 132 19.5 233.5t70.5 191.5q104 188 399 188q248 0 356.5 -101.5t122.5 -301.5l-213 -29q-4 115 -60 168t-186 53t-182.5 -98t-52.5 -305t52.5 -305.5t182.5 -98.5t186 53.5t60 167.5l215 -10q-12 -209 -121.5 -315.5t-359.5 -106.5q-293 0 -399 191 q-51 92 -70.5 192.5t-19.5 232.5zM305 -266h172q0 -76 66 -76q29 0 45 13.5t19 27.5t3 37q0 63 -73 76l-109 18l18 98h91q117 0 179 -42t62 -154.5t-52 -169t-185 -56.5q-236 1 -236 228z" />
<glyph unicode="&#xe8;" horiz-adv-x="1153" d="M74 586q0 614 516 614q297 0 405 -184q94 -158 95 -410v-74h-750q2 -193 63.5 -271.5t202.5 -78.5q227 0 242 164l225 -8q-33 -367 -475 -367q-283 0 -403.5 152.5t-120.5 462.5zM313 1493l123 197l400 -273l-93 -147zM346 719h473q-12 137 -63 203.5t-168 66.5 t-171.5 -64.5t-70.5 -205.5z" />
<glyph unicode="&#xe9;" horiz-adv-x="1153" d="M74 586q0 614 516 614q297 0 405 -184q94 -158 95 -410v-74h-750q2 -193 63.5 -271.5t202.5 -78.5q227 0 242 164l225 -8q-33 -367 -475 -367q-283 0 -403.5 152.5t-120.5 462.5zM346 719h473q-12 137 -63 203.5t-168 66.5t-171.5 -64.5t-70.5 -205.5zM412 1417l399 273 l123 -197l-430 -223z" />
<glyph unicode="&#xea;" horiz-adv-x="1153" d="M74 586q0 614 516 614q297 0 405 -184q94 -158 95 -410v-74h-750q2 -193 63.5 -271.5t202.5 -78.5q227 0 242 164l225 -8q-33 -367 -475 -367q-283 0 -403.5 152.5t-120.5 462.5zM260 1380l262 301h125l262 -301l-98 -98l-227 172l-226 -172zM346 719h473 q-12 137 -63 203.5t-168 66.5t-171.5 -64.5t-70.5 -205.5z" />
<glyph unicode="&#xeb;" horiz-adv-x="1148" d="M70 586q0 614 516 614q297 0 405 -184q94 -158 94 -410v-74h-749q2 -193 63.5 -271.5t202.5 -78.5q227 0 242 164l225 -8q-33 -367 -475 -367q-283 0 -403.5 152.5t-120.5 462.5zM217.5 1454q-0.5 47 3.5 68.5t17 46.5q25 53 116 53q96 0 121 -53q20 -41 20.5 -88 t-4 -68.5t-16.5 -46.5t-43 -37t-78 -12t-75.5 12t-40.5 37q-20 41 -20.5 88zM342 719h473q-12 137 -63.5 203.5t-168 66.5t-171 -64.5t-70.5 -205.5zM664 1454q0 47 4 68.5t16 46.5q25 53 117 53q96 0 121 -53q20 -41 20 -88t-4 -68.5t-16.5 -46.5t-43 -37t-77.5 -12t-76 12 t-41 37q-20 41 -20 88z" />
<glyph unicode="&#xec;" horiz-adv-x="659" d="M39 1493l123 197l399 -273l-92 -147zM193 0v1171h274v-1171h-274z" />
<glyph unicode="&#xed;" horiz-adv-x="659" d="M111 1417l399 273l123 -197l-430 -223zM193 0v1171h274v-1171h-274z" />
<glyph unicode="&#xee;" horiz-adv-x="659" d="M-14 1380l262 301h125l262 -301l-98 -98l-228 172l-225 -172zM193 0v1171h274v-1171h-274z" />
<glyph unicode="&#xef;" horiz-adv-x="659" d="M-32.5 1454q-0.5 47 3.5 68.5t17 46.5q25 53 116 53q96 0 121 -53q20 -41 20.5 -88t-3.5 -68.5t-16.5 -46.5t-43 -37t-78 -12t-76 12t-40.5 37q-20 41 -20.5 88zM193 0v1171h274v-1171h-274zM414 1454q0 47 4 68.5t16 46.5q25 53 117 53q96 0 121 -53q20 -41 20 -88 t-4 -68.5t-16.5 -46.5t-43 -37t-77.5 -12t-76 12t-41 37q-20 41 -20 88z" />
<glyph unicode="&#xf0;" horiz-adv-x="1212" d="M74 504q0 207 102 356q55 82 166 129t245 47t232 -69q-37 119 -104 227l-199 -80v178l96 39l-75 80l129 154q86 -74 153 -152l275 109v-179l-172 -67q217 -328 217 -729v-43q0 -397 -312 -500q-96 -33 -221 -33t-221 32t-153.5 83t-94.5 123q-63 123 -63 295zM348 504 q0 -330 258 -330t258 330t-258 330t-258 -330z" />
<glyph unicode="&#xf1;" horiz-adv-x="1357" d="M193 0v1171h129l88 -106q193 135 394.5 135t291.5 -99.5t90 -273.5v-827h-275v799q0 104 -37.5 147t-132.5 43q-147 0 -274 -92v-897h-274zM356 1386q35 129 87.5 184.5t113.5 55.5t158.5 -37t128.5 -37q59 0 86 90l151 -49q-34 -129 -86.5 -184t-114 -55t-157.5 36.5 t-127 36.5q-59 0 -86 -90z" />
<glyph unicode="&#xf2;" horiz-adv-x="1212" d="M74 585.5q0 614.5 532.5 614.5t532.5 -614.5t-532.5 -614.5t-532.5 614.5zM336 1493l123 197l399 -273l-92 -147zM348 585.5q0 -198.5 53.5 -301t205 -102.5t204.5 102.5t53 301t-53 301t-204.5 102.5t-205 -102.5t-53.5 -301z" />
<glyph unicode="&#xf3;" horiz-adv-x="1212" d="M74 585.5q0 614.5 532.5 614.5t532.5 -614.5t-532.5 -614.5t-532.5 614.5zM348 585.5q0 -198.5 53.5 -301t205 -102.5t204.5 102.5t53 301t-53 301t-204.5 102.5t-205 -102.5t-53.5 -301zM432 1417l399 273l123 -197l-430 -223z" />
<glyph unicode="&#xf4;" horiz-adv-x="1212" d="M74 585.5q0 614.5 532.5 614.5t532.5 -614.5t-532.5 -614.5t-532.5 614.5zM281 1380l262 301h125l262 -301l-99 -98l-227 172l-225 -172zM348 585.5q0 -198.5 53.5 -301t205 -102.5t204.5 102.5t53 301t-53 301t-204.5 102.5t-205 -102.5t-53.5 -301z" />
<glyph unicode="&#xf5;" horiz-adv-x="1212" d="M74 585.5q0 614.5 532.5 614.5t532.5 -614.5t-532.5 -614.5t-532.5 614.5zM244 1386q35 129 87 184.5t113.5 55.5t158.5 -37t128 -37q59 0 86 90l152 -49q-35 -129 -87.5 -184t-113.5 -55t-157.5 36.5t-127.5 36.5q-59 0 -86 -90zM348 585.5q0 -198.5 53.5 -301 t205 -102.5t204.5 102.5t53 301t-53 301t-204.5 102.5t-205 -102.5t-53.5 -301z" />
<glyph unicode="&#xf6;" horiz-adv-x="1212" d="M74 585.5q0 614.5 532.5 614.5t532.5 -614.5t-532.5 -614.5t-532.5 614.5zM244 1454q0 47 4 68.5t16 46.5q25 53 117 53q96 0 121 -53q20 -41 20 -88t-4 -68.5t-16.5 -46.5t-43 -37t-77.5 -12t-76 12t-41 37q-20 41 -20 88zM348 585.5q0 -198.5 53.5 -301t205 -102.5 t204.5 102.5t53 301t-53 301t-204.5 102.5t-205 -102.5t-53.5 -301zM690.5 1454q-0.5 47 3.5 68.5t17 46.5q25 53 116 53q96 0 121 -53q20 -41 20.5 -88t-3.5 -68.5t-16.5 -46.5t-43.5 -37t-78 -12t-75.5 12t-40.5 37q-20 41 -20.5 88z" />
<glyph unicode="&#xf7;" horiz-adv-x="1187" d="M176 557v188h836v-188h-836zM463 272.5q0 32.5 3 55t15 47.5q27 51 111 51q90 0 113 -51q20 -43 20 -89t-4 -67.5t-15.5 -46.5t-40 -38t-72.5 -13t-71.5 13t-40 38t-15.5 46.5t-3 54zM463 1007.5q0 32.5 3 55t15 47.5q27 51 111 51q90 0 113 -51q20 -43 20 -89t-4 -67.5 t-15.5 -46t-40 -38t-72.5 -13.5t-71.5 13.5t-40 38t-15.5 46t-3 54z" />
<glyph unicode="&#xf8;" horiz-adv-x="1212" d="M74 586q0 614 532 614q27 0 76 -4l57 209h174l-65 -246q291 -117 291 -573q0 -614 -533 -615q-29 0 -78 4l-55 -211h-172l66 246q-293 117 -293 576zM348 558q0 -226 82 -312l197 743h-21q-151 0 -204.5 -102.5t-53.5 -328.5zM586 182h20q152 0 205 102.5t53 326 t-80 311.5z" />
<glyph unicode="&#xf9;" horiz-adv-x="1359" d="M172 344v827h274v-782q0 -106 42 -156.5t141 -50.5q139 0 264 131v858h274v-1171h-178l-78 141q-160 -170 -379 -170q-360 0 -360 373zM354 1493l123 197l400 -273l-93 -147z" />
<glyph unicode="&#xfa;" horiz-adv-x="1359" d="M172 344v827h274v-782q0 -106 42 -156.5t141 -50.5q139 0 264 131v858h274v-1171h-178l-78 141q-160 -170 -379 -170q-360 0 -360 373zM520 1417l400 273l122 -197l-430 -223z" />
<glyph unicode="&#xfb;" horiz-adv-x="1359" d="M172 344v827h274v-782q0 -106 42 -156.5t141 -50.5q139 0 264 131v858h274v-1171h-178l-78 141q-160 -170 -379 -170q-360 0 -360 373zM362 1380l263 301h125l262 -301l-99 -98l-227 172l-225 -172z" />
<glyph unicode="&#xfc;" horiz-adv-x="1359" d="M172 344v827h274v-782q0 -106 42 -156.5t141 -50.5q139 0 264 131v858h274v-1171h-178l-78 141q-160 -170 -379 -170q-360 0 -360 373zM324 1454q0 47 4 68.5t16 46.5q25 53 117 53q96 0 121 -53q20 -41 20 -88t-4 -68.5t-16.5 -46.5t-43 -37t-77.5 -12t-76 12t-41 37 q-20 41 -20 88zM770.5 1454q-0.5 47 3.5 68.5t17 46.5q25 53 116 53q96 0 121 -53q20 -41 20.5 -88t-4 -68.5t-16.5 -46.5t-43 -37t-78 -12t-75.5 12t-40.5 37q-20 41 -20.5 88z" />
<glyph unicode="&#xfd;" horiz-adv-x="1110" d="M8 1171h277l280 -815l254 815h281l-586 -1656l-244 36l166 433zM362 1417l400 273l123 -197l-430 -223z" />
<glyph unicode="&#xfe;" horiz-adv-x="1298" d="M193 -420v1915l274 25v-410q144 90 291 90q467 0 467 -614.5t-469 -614.5q-135 0 -289 52v-443h-274zM467 223q111 -39 238 -39q246 0 245.5 401.5t-262.5 401.5q-117 0 -221 -80v-684z" />
<glyph unicode="&#xff;" horiz-adv-x="1110" d="M8 1171h277l280 -815l254 815h281l-586 -1656l-244 36l166 433zM240 1454q0 47 4 68.5t16 46.5q25 53 117 53q96 0 121 -53q20 -41 20 -88t-4 -68.5t-16.5 -46.5t-43 -37t-77.5 -12t-76 12t-41 37q-20 41 -20 88zM686.5 1454q-0.5 47 3.5 68.5t17 46.5q25 53 116 53 q96 0 121 -53q20 -41 20.5 -88t-4 -68.5t-16.5 -46.5t-43 -37t-78 -12t-75.5 12t-40.5 37q-20 41 -20.5 88z" />
<glyph unicode="&#x152;" horiz-adv-x="1943" d="M115 748q0 172 26.5 299t89.5 231q131 217 484 217h1118v-215h-633q96 -145 113 -414h469v-213h-467q-14 -289 -115 -438h674v-215h-1159q-354 0 -484 213q-117 195 -116 535zM393 747.5q0 -251.5 69.5 -388t252 -136.5t253 136.5t70.5 388t-70.5 388t-253 136.5 t-252 -136.5t-69.5 -388z" />
<glyph unicode="&#x153;" horiz-adv-x="1951" d="M74 585.5q0 614.5 532 614.5q266 0 398 -153q127 154 385 153q297 0 405 -184q94 -158 94 -410v-74h-749q4 -193 64.5 -271.5t201.5 -78.5q227 0 242 164l225 -8q-33 -367 -475 -367q-276 0 -398 150q-129 -150 -393 -150q-532 0 -532 614.5zM348 585.5 q0 -198.5 53.5 -301t208 -102.5t204.5 106.5t50 300t-52 297t-204.5 103.5t-206 -102.5t-53.5 -301zM1147 719h471q-12 137 -63.5 203.5t-167 66.5t-171 -65.5t-69.5 -204.5z" />
<glyph unicode="&#x178;" horiz-adv-x="1175" d="M-12 1495h278l322 -715l321 715h279l-461 -975v-520h-278v520zM225.5 1778q-0.5 47 3.5 68.5t17 45.5q25 53 116 54q96 0 121 -54q20 -41 20.5 -88t-3.5 -68.5t-16.5 -46t-43 -37t-78 -12.5t-76 12.5t-40.5 37.5q-20 41 -20.5 88zM672 1778q0 47 4 68.5t16 45.5 q25 53 117 54q96 0 121 -54q20 -41 20 -88t-4 -68.5t-16 -46t-43 -37t-78 -12.5t-75.5 12.5t-41.5 37.5q-20 41 -20 88z" />
<glyph unicode="&#x2c6;" horiz-adv-x="788" d="M70 1380l262 301h125l262 -301l-98 -98l-228 172l-225 -172z" />
<glyph unicode="&#x2dc;" horiz-adv-x="806" d="M41 1386q35 129 87 184.5t113.5 55.5t159 -37t127.5 -37q59 0 86 90l152 -49q-35 -129 -87 -184t-113.5 -55t-158 36.5t-126.5 36.5q-59 0 -86 -90z" />
<glyph unicode="&#x2000;" horiz-adv-x="1019" />
<glyph unicode="&#x2001;" horiz-adv-x="2038" />
<glyph unicode="&#x2002;" horiz-adv-x="1019" />
<glyph unicode="&#x2003;" horiz-adv-x="2038" />
<glyph unicode="&#x2004;" horiz-adv-x="679" />
<glyph unicode="&#x2005;" horiz-adv-x="509" />
<glyph unicode="&#x2006;" horiz-adv-x="339" />
<glyph unicode="&#x2007;" horiz-adv-x="339" />
<glyph unicode="&#x2008;" horiz-adv-x="254" />
<glyph unicode="&#x2009;" horiz-adv-x="407" />
<glyph unicode="&#x200a;" horiz-adv-x="113" />
<glyph unicode="&#x2010;" horiz-adv-x="974" d="M127 557v188h721v-188h-721z" />
<glyph unicode="&#x2011;" horiz-adv-x="974" d="M127 557v188h721v-188h-721z" />
<glyph unicode="&#x2012;" horiz-adv-x="974" d="M127 557v188h721v-188h-721z" />
<glyph unicode="&#x2013;" horiz-adv-x="1155" d="M127 557v188h901v-188h-901z" />
<glyph unicode="&#x2014;" horiz-adv-x="1837" d="M127 557v188h1583v-188h-1583z" />
<glyph unicode="&#x2018;" horiz-adv-x="561" d="M115 1161q0 250 260 443l71 -84q-94 -70 -94 -162q0 -23 20.5 -84.5t20.5 -104.5t-4 -66.5t-16 -49.5q-23 -51 -113 -52q-145 0 -145 160z" />
<glyph unicode="&#x2019;" horiz-adv-x="512" d="M115 1083q94 70 94 162q0 25 -20.5 85.5t-20.5 104.5t4 67.5t16 49.5q23 51 113 52q145 0 145 -160q0 -250 -260 -443z" />
<glyph unicode="&#x201a;" horiz-adv-x="462" d="M39 -199q94 90 94 162q0 27 -20.5 87.5t-20.5 97t4 59t17 47.5q27 51 102.5 51t109 -25.5t40 -54t6.5 -73.5q0 -227 -260 -435z" />
<glyph unicode="&#x201c;" horiz-adv-x="931" d="M115 1161q0 250 260 443l71 -84q-94 -84 -94 -162q0 -23 20.5 -84.5t20.5 -110.5t-7 -79.5t-39 -56.5t-103.5 -26t-100 44.5t-28.5 115.5zM485 1161q0 250 260 443l72 -84q-94 -70 -94 -162q0 -23 20.5 -84.5t20.5 -104.5t-4 -66.5t-15 -49.5q-25 -51 -114 -52 q-145 0 -146 160z" />
<glyph unicode="&#x201d;" horiz-adv-x="931" d="M115 1083q94 70 94 162q0 25 -20.5 85.5t-20.5 104.5t4 67.5t16 49.5q23 51 113 52q145 0 145 -160q0 -250 -260 -443zM485 1083q94 84 95 162q0 25 -20.5 85.5t-20.5 110.5t7 80.5t38.5 56.5t103.5 26t100.5 -44t28.5 -116q0 -250 -260 -443z" />
<glyph unicode="&#x201e;" horiz-adv-x="833" d="M39 -201q94 70 94 162q0 25 -20.5 85t-20.5 104.5t4 68t15 47.5q25 53 114 53q145 0 146 -159q0 -250 -260 -443zM410 -201q94 84 94 162q0 25 -20.5 85t-20.5 110.5t7 81t39 56t103.5 25.5t100 -44t28.5 -115q0 -250 -260 -443z" />
<glyph unicode="&#x2022;" horiz-adv-x="557" d="M49 655q0 76 6 112t27 75q41 78 186 78q154 0 191 -80q33 -63 33 -138t-6.5 -110t-26 -74t-67.5 -59.5t-121.5 -20.5t-121 20.5t-67.5 59.5q-33 61 -33 137z" />
<glyph unicode="&#x2026;" horiz-adv-x="1503" d="M92 137q0 41 4 64.5t19 50.5q25 53 123 53q102 0 127 -53q23 -43 22.5 -93t-4.5 -73t-17.5 -49.5t-45 -39.5t-89 -13t-91.5 26.5t-41 56t-7 70.5zM604 137q0 41 4 64.5t19 50.5q25 53 123 53q102 0 127 -53q23 -43 22.5 -93t-4.5 -73t-17.5 -49.5t-45 -39.5t-89 -13 t-91.5 26.5t-41 56t-7 70.5zM1116 137q0 41 4 64.5t19 50.5q25 53 123 53q102 0 127 -53q23 -43 22.5 -93t-4.5 -73t-17.5 -49.5t-45 -39.5t-89 -13t-91.5 26.5t-41 56t-7 70.5z" />
<glyph unicode="&#x202f;" horiz-adv-x="407" />
<glyph unicode="&#x2039;" horiz-adv-x="624" d="M45 596v98l369 391l133 -131l-234 -309l234 -309l-133 -131z" />
<glyph unicode="&#x203a;" horiz-adv-x="624" d="M78 336l233 309l-233 309l133 131l369 -391v-98l-369 -391z" />
<glyph unicode="&#x205f;" horiz-adv-x="509" />
<glyph unicode="&#x20ac;" horiz-adv-x="1290" d="M59 487v187h129v147h-129v187h146q78 516 540 516q246 0 368 -103.5t126 -294.5l-242 -16q0 94 -70.5 145.5t-186 51.5t-178 -77t-85.5 -222h381v-187h-395v-147h395v-187h-381q23 -147 85.5 -224t179 -77t187 53.5t70.5 149.5l242 -16q-4 -193 -127 -297.5 t-371.5 -104.5t-374.5 136.5t-163 379.5h-146z" />
<glyph unicode="&#x2122;" horiz-adv-x="2058" d="M113 1317v178h655v-178h-219v-727h-217v727h-219zM918 590v905h313l153 -496l170 496h310v-905h-215v608l-168 -475h-197l-149 455v-588h-217z" />
<glyph unicode="&#x25fc;" horiz-adv-x="1167" d="M0 0v1167h1167v-1167h-1167z" />
</font>
</defs>
</svg>
